<?xml version="1.0" encoding="UTF-8"?>
<svg xmlns="http://www.w3.org/2000/svg" xmlns:xlink="http://www.w3.org/1999/xlink" width="22pt" height="22pt" viewBox="0 0 22 22" version="1.1">
<g id="surface1">
<path style=" stroke:none;fill-rule:evenodd;fill:rgb(0%,0%,0%);fill-opacity:1;" d="M 15.148438 1.320312 L 18.582031 3.21875 L 18.582031 7.351562 L 15.148438 5.457031 Z M 18.316406 7.761719 L 14.914062 9.640625 L 14.875 9.617188 L 11.503906 7.757812 L 14.90625 5.878906 Z M 7.078125 13.960938 L 3.65625 12.089844 L 6.851562 10.324219 L 6.871094 10.445312 C 6.972656 11.195312 7.273438 12.125 7.839844 13.460938 L 7.867188 13.527344 Z M 7.320312 18.828125 L 7.320312 18.777344 C 7.386719 17.796875 7.972656 16.296875 8.464844 15.207031 L 8.539062 15.042969 L 8.746094 15.488281 C 9.351562 16.796875 10.476562 19.238281 10.6875 20.53125 L 10.714844 20.695312 Z M 14.660156 18.777344 L 14.660156 18.828125 L 11.210938 20.722656 L 11.195312 20.605469 C 11.003906 19.242188 10.03125 17.046875 9.007812 14.882812 C 7.304688 11.273438 7.3125 10.332031 7.320312 9.507812 L 3.386719 11.671875 L 3.386719 7.554688 L 14.660156 1.324219 L 14.660156 5.449219 L 10.742188 7.613281 L 10.742188 7.65625 C 10.730469 8.167969 10.710938 9.230469 12.726562 13.464844 C 13.980469 16.089844 14.59375 17.777344 14.660156 18.777344 Z M 13.515625 13.671875 L 13.433594 13.847656 L 13.359375 13.671875 C 13.285156 13.511719 13.175781 13.265625 13.039062 12.976562 C 12.453125 11.703125 11.472656 9.570312 11.296875 8.363281 L 11.269531 8.199219 L 14.660156 10.0625 L 14.660156 10.117188 C 14.578125 11.117188 14.007812 12.542969 13.515625 13.671875 Z M 13.515625 13.671875 "/>
</g>
</svg>
