<svg width="33" height="33" viewBox="0 0 33 33" fill="none" xmlns="http://www.w3.org/2000/svg">
<path d="M16.5 33C25.6127 33 33 25.6127 33 16.5C33 7.3873 25.6127 0 16.5 0C7.3873 0 0 7.3873 0 16.5C0 25.6127 7.3873 33 16.5 33Z" fill="#64647E"/>
<path fill-rule="evenodd" clip-rule="evenodd" d="M19.7617 6L23.1953 7.89844V12.0312L19.7617 10.1367V6ZM22.9297 12.4414L19.5273 14.3203L19.4883 14.2969L16.1172 12.4375L19.5195 10.5586L22.9297 12.4414ZM11.6914 18.6406L8.26953 16.7695L11.4648 15.0039L11.4844 15.125C11.5859 15.875 11.8867 16.8047 12.4531 18.1406L12.4805 18.207L11.6914 18.6406ZM11.9336 23.5078V23.457C12 22.4766 12.5859 20.9766 13.0781 19.8867L13.1523 19.7227L13.3594 20.168C13.9648 21.4766 15.0898 23.918 15.3008 25.2109L15.3281 25.375L11.9336 23.5078ZM19.2734 23.457V23.5078L15.8242 25.4023L15.8086 25.2852C15.6172 23.9219 14.6445 21.7266 13.6211 19.5625C11.918 15.9531 11.9258 15.0117 11.9336 14.1875L8 16.3516V12.2344L19.2734 6.00391V10.1289L15.3555 12.293V12.3359C15.3438 12.8477 15.3242 13.9102 17.3398 18.1445C18.5937 20.7695 19.207 22.457 19.2734 23.457ZM18.1289 18.3516L18.0469 18.5273L17.9727 18.3516C17.8984 18.1914 17.7891 17.9453 17.6523 17.6562C17.0664 16.3828 16.0859 14.25 15.9102 13.043L15.8828 12.8789L19.2734 14.7422V14.7969C19.1914 15.7969 18.6211 17.2227 18.1289 18.3516Z" fill="white"/>
</svg>
